<?xml version="1.0" encoding="UTF-8"?>
<svg width="512" height="512" viewBox="0 0 512 512" fill="none" xmlns="http://www.w3.org/2000/svg">
  <!-- Background circle -->
  <circle cx="256" cy="256" r="256" fill="#2563EB"/>
  
  <!-- Letter O -->
  <path d="M256 96C176.471 96 112 160.471 112 240C112 319.529 176.471 384 256 384C335.529 384 400 319.529 400 240C400 160.471 335.529 96 256 96ZM256 320C211.817 320 176 284.183 176 240C176 195.817 211.817 160 256 160C300.183 160 336 195.817 336 240C336 284.183 300.183 320 256 320Z" fill="white"/>
  
  <!-- Roof accent -->
  <path d="M256 48L384 128H128L256 48Z" fill="white"/>
</svg> 