<?xml version="1.0" encoding="UTF-8"?>
<svg width="32" height="32" viewBox="0 0 32 32" fill="none" xmlns="http://www.w3.org/2000/svg">
  <!-- Background circle -->
  <circle cx="16" cy="16" r="16" fill="#2563EB"/>
  
  <!-- Letter O -->
  <path d="M16 6C11.0294 6 7 10.0294 7 15C7 19.9706 11.0294 24 16 24C20.9706 24 25 19.9706 25 15C25 10.0294 20.9706 6 16 6ZM16 20C13.2386 20 11 17.7614 11 15C11 12.2386 13.2386 10 16 10C18.7614 10 21 12.2386 21 15C21 17.7614 18.7614 20 16 20Z" fill="white"/>
  
  <!-- Roof accent -->
  <path d="M16 3L24 8H8L16 3Z" fill="white"/>
</svg> 